<?xml version="1.0" standalone="no"?>
<!DOCTYPE svg PUBLIC "-//W3C//DTD SVG 20010904//EN"
 "http://www.w3.org/TR/2001/REC-SVG-20010904/DTD/svg10.dtd">
<svg version="1.0" xmlns="http://www.w3.org/2000/svg"
 width="219.000000pt" height="219.000000pt" viewBox="0 0 219.000000 219.000000"
 preserveAspectRatio="xMidYMid meet">
<metadata>
Created by potrace 1.11, written by Peter Selinger 2001-2013
</metadata>
<g transform="translate(0.000000,219.000000) scale(0.100000,-0.100000)"
fill="#000000" stroke="none">
<path d="M1010 2159 c-36 -5 -74 -13 -85 -18 -11 -6 -51 -18 -90 -27 -75 -18
-122 -38 -199 -88 -27 -17 -52 -31 -56 -31 -37 0 -253 -203 -325 -306 -66 -95
-141 -233 -150 -279 -4 -19 -11 -39 -14 -45 -13 -18 -70 -179 -81 -229 -11
-48 -7 -303 6 -376 6 -38 99 -256 119 -280 7 -8 23 -35 35 -60 43 -85 212
-229 350 -298 30 -15 57 -29 60 -32 3 -3 46 -19 95 -35 83 -27 101 -29 240
-29 83 -1 168 3 190 7 23 4 52 9 65 12 13 2 46 7 74 10 106 11 162 33 202 77
60 65 42 168 -34 204 -42 20 -124 15 -227 -15 -58 -16 -97 -19 -225 -17 l-155
2 -109 52 c-59 29 -112 52 -117 52 -4 0 -48 40 -97 89 -131 131 -192 268 -196
443 -5 168 49 330 193 581 28 49 88 117 104 117 4 0 28 19 53 42 129 121 319
194 510 196 202 2 242 14 277 85 16 32 17 44 8 85 -13 51 -47 83 -112 103 -43
14 -224 18 -309 8z"/>
<path d="M1894 1768 c-58 -15 -136 -128 -137 -197 -1 -117 49 -211 124 -231
55 -15 101 -4 169 41 79 53 98 105 91 251 -3 79 -154 162 -247 136z"/>
<path d="M1959 538 c-106 -35 -181 -131 -165 -209 10 -49 74 -148 109 -165 86
-45 210 15 268 128 38 75 8 173 -73 237 -33 26 -80 29 -139 9z"/>
</g>
</svg>
