<?xml version="1.0" encoding="utf-8"?>
<!-- Generator: Adobe Illustrator 24.3.0, SVG Export Plug-In . SVG Version: 6.00 Build 0)  -->
<svg version="1.1" id="레이어_1" xmlns="http://www.w3.org/2000/svg" xmlns:xlink="http://www.w3.org/1999/xlink" x="0px"
	 y="0px" viewBox="0 0 884.85 241.53" style="enable-background:new 0 0 884.85 241.53;" xml:space="preserve">
<style type="text/css">
	.st0{fill:#fc0;}
</style>
<path class="st0" d="M137.38,204.55c-3.86-0.49-7.94-0.57-11.58,0.8c-3.7,1.39-7.52,2.16-11.3,2.85c-3.6,0.66-7.38,1.62-10.95,1.34
	c-4.37-0.35-8.7,0.07-13.03-0.22c-4.48-0.29-9.07-0.38-13.29-2.2c-4.74-2.05-9.42-4.23-14.06-6.5c-4.2-2.05-8.76-3.61-11.56-7.79
	c-0.44-0.66-1.19-1.11-1.8-1.65c-5.17-4.65-10.12-9.45-13.18-15.88c-4.94-10.38-9.31-20.89-8.19-32.23c0.12-2.98-0.19-5.39,0-7.87
	c0.39-5.14,2.62-9.79,3.56-14.79c0.59-3.15,1.59-6.55,3.13-9.43c1.66-3.13,2.93-6.45,4.71-9.47c2.15-3.65,3.18-7.92,6.27-11.05
	c1.22-1.23,1.82-2.91,2.38-4.55c0.32-0.94,0.65-1.84,1.33-2.64c2.78-3.28,5.18-6.9,9.4-8.7c1.17-0.5,2-1.81,2.97-2.75
	c3.93-3.79,8.24-7.39,12.96-9.8c9.41-4.8,19.22-8.9,29.88-10.42c2.44-0.35,4.85-0.82,7.28-0.44c2.36,0.37,4.7,0.21,7.05,0.25
	c4.19,0.07,8.28-0.85,12.47-0.93c5.63-0.12,10.4-4.67,11.51-10.28c1.15-5.79-1.58-11.78-6.84-14.11c-4.07-1.79-8.46-3.18-12.86-3.27
	c-8.58-0.17-17.19-0.37-25.74,1.14c-4.08,0.72-7.77,2.54-11.76,3.34c-6.83,1.37-13.32,3.43-19.17,7.36
	c-3.12,2.1-6.02,4.66-9.89,5.47c-0.84,0.18-1.65,0.79-2.33,1.37c-6.01,5.19-12.86,9.46-17.78,15.82c-2.35,3.04-6.2,4.62-7.92,8.14
	c-2.51,5.14-6.93,8.88-9.57,14.04c-2.34,4.55-4.9,9.06-7.25,13.64c-1.56,3.03-1.44,6.71-2.92,9.54c-2.34,4.45-3.46,9.28-5.42,13.83
	c-4.26,9.87-3.88,20.53-3.88,31.05c0,0.89,0.24,1.81,0.52,2.67c0.67,2.11,0.79,4.24,0.78,6.44c-0.02,5.5,0.92,10.88,3.36,15.84
	c1.28,2.6,2.7,5.11,3.8,7.8c1.85,4.52,3.33,9.24,6.85,12.9c0.54,0.56,0.76,1.43,1.09,2.17c2.47,5.47,5.74,10.28,10.96,13.52
	c0.6,0.38,1.19,0.85,1.64,1.4c4.79,5.88,11.26,9.84,17.52,13.61c7.13,4.3,14.69,8.38,23.17,9.82c3.88,0.66,7.08,3.65,11.06,3.55
	c7.42-0.18,14.84,0.28,22.28-0.47c7.23-0.72,14.22-2.96,21.46-3.22c6.05-0.22,11.56-1.66,16.78-4.77c4.89-2.91,7.75-8.22,6.8-13.74
	C147.17,209.67,142.91,205.25,137.38,204.55z"/>
<path class="st0" d="M316.95,177.38c-0.97-6.47,0.13-12.97-0.3-19.49c-0.3-4.6-0.17-9.18-1.24-13.73
	c-1.31-5.58-4.15-10.62-5.46-16.2c-0.43-1.84-1.54-3.49-2.8-4.94c-1.38-1.58-2.44-3.37-3.56-5.12c-2.64-4.12-5.28-8.48-9.24-11.29
	c-3.92-2.78-8.04-5.4-12.84-6.93c-8.34-2.65-16.8-4.66-25.49-5.1c-4.63-0.24-9.39-0.85-14.04,0.41c-5.86,1.59-11.21,4.48-16.86,6.63
	c-5.09,1.94-9.58,5.16-13.12,9.48c-0.44,0.53-0.95,1.36-1.73,1.07c-0.85-0.31-0.39-1.27-0.47-1.94c-0.5-4.05,0.8-7.91,1.29-11.86
	c0.97-7.8,0.24-15.59-0.34-23.36c-0.33-4.38,0.58-8.65,0.39-13.03c-0.28-6.67,0.91-13.4-1.01-19.99c-0.05-0.16,0.01-0.36,0.05-0.54
	c0.6-2.99,0.2-5.99-0.08-8.96c-0.59-6.19-4.54-10.91-9.99-12.29c-8.61-2.18-16.3,3.93-16.53,13.22c-0.18,7.6,1.27,15.13,1.2,22.74
	c-0.03,3.48-1.28,6.81-0.9,10.28c0.89,8.22,0.67,16.48,0.59,24.71c-0.11,11.24-0.37,22.48-0.35,33.73c0,1.8-0.03,3.58-0.27,5.4
	c-0.65,5.01-1.4,10.1-1.21,15.12c0.36,9.33-0.29,18.64-0.07,27.97c0.17,7.41-0.44,14.86-0.72,22.28c-0.14,3.76-0.75,7.58-0.25,11.36
	c0.71,5.32,0.67,10.66,0.85,16c-0.05,0.82-0.12,1.63-0.14,2.45c-0.14,7.09,5.11,13.11,12.06,13.83c7.09,0.74,13.75-4.15,14.81-11.19
	c0.89-5.94,0.54-11.98,0.12-17.92c-0.25-3.55,0.25-7.05-0.16-10.57c-0.39-3.42-0.69-6.85,0.85-10.16c0.65-1.39,0.77-2.99,0.76-4.54
	c-0.05-5.45,1.99-10.66,1.58-16.19c-0.25-3.29,2.72-5.65,3.48-8.75c1.59-6.39,3.71-12.54,6.56-18.55
	c4.11-8.67,10.94-14.31,19.13-18.2c6.29-2.99,13.51-3,20.23-1.45c4.43,1.02,9.05,2.14,13.15,4.27c3,1.56,6.35,3.28,7.76,6.55
	c1.36,3.15,2.75,6.3,4,9.49c3.45,8.8,4.08,18.07,3.97,27.43c-0.02,1.9,0.18,3.83-0.04,5.71c-1.07,8.83-0.94,17.72-1.45,26.58
	c-0.32,5.64-0.02,11.39-2.41,16.85c-1.88,4.29-1.96,8.85,0.43,13.16c2.76,4.97,8.68,7.81,14.06,6.77
	c6.38-1.23,11.1-6.19,11.43-13.13c0.24-5.12,1.09-10.05,2.17-15c0.23-1.06,0.43-2.16,0.39-3.24c-0.19-5.45,1.19-10.82,0.94-16.26
	C315.93,186.37,317.64,181.96,316.95,177.38z"/>
<path class="st0" d="M486.5,198.43c-3,2-5.25,1.22-7.94-0.29c-5.04-2.81-9.62-6.05-12.27-11.38c-2.34-4.7-4.24-9.58-5.6-14.64
	c-0.22-0.81,0.05-1.81,0.29-2.67c0.96-3.4,1.21-6.95,2.38-10.32c0.83-2.41,0.71-4.97,0.62-7.54c-0.14-3.8-0.41-7.59-0.56-11.38
	c-0.22-5.68-0.67-11.25-4.25-16.02c-1.85-2.46-3.45-5.15-5.53-7.39c-3.5-3.76-7.68-6.81-11.73-9.97c-0.49-0.38-1.12-0.61-1.73-0.8
	c-4.9-1.55-9.38-4.12-14.18-5.97c-9.04-3.46-17.61-1.9-26.08,0.47c-6.75,1.89-13.18,5-19.98,6.93c-1.59,0.45-3.17,1.04-4.42,2.07
	c-4.33,3.56-8.97,6.77-12.75,10.99c-4.52,5.05-7.98,10.89-11.94,16.34c-7.48,10.31-11.54,22.2-13.44,34.86
	c-0.62,4.15,1.16,8.11,0.29,11.58c-0.25,2.58-0.42,4.57,0.12,6.55c1.06,3.92,2.17,7.79,3.52,11.65c2.56,7.31,7.18,12.92,12.3,18.34
	c1.56,1.65,3.01,3.53,5.15,4.39c5.43,2.19,9.65,6.36,15.44,8.25c7.05,2.3,13.51,4.55,21.32,3.29c6.3-1.02,12.36-2,17.63-5.54
	c4.4-2.95,9.22-5.33,12.71-9.65c1.85-2.29,3.64-4.86,6.03-6.57c3.07-2.19,5.86-4.44,7.88-7.73c1.05-1.71,2.64-3.66,4.37-4.17
	c1.28-0.38,2.02,2.45,3.33,3.56c0.9,0.76,1.78,1.55,2.72,2.25c0.88,0.66,1.75,1.29,2.29,2.28c5.43,9.96,15.09,12.69,25.17,14.35
	c3.41,0.56,7-0.12,10.53,0.42c2.56,0.39,5.09-0.45,7.2-2c2.19-1.6,4.37-3.28,6.3-5.18c4.41-4.35,4.76-11.61,0.96-16.45
	C498.84,196.5,491.68,194.97,486.5,198.43z M435.16,139.44c-2.02,4.82-1.95,9.8-1.8,14.94c0.15,4.99,1.37,10.23-0.88,15.02
	c-2.53,5.4-5.49,10.61-9.17,15.36c-2.89,3.72-6.04,7.38-9.5,10.39c-5.04,4.38-9.19,9.78-14.94,13.37c-2.16,1.35-4.38,2.03-6.97,1.37
	c-3.95-1.01-7.7-2.61-11.52-3.86c-7.01-2.29-10.07-8.22-14.44-13.01c-0.9-0.98-0.74-2.4-0.96-3.64c-0.96-5.31-2.53-10.54-1.58-16.07
	c0.41-2.41,1.05-4.64,1.91-6.96c2.78-7.45,7.67-13.75,10.8-21c1.32-3.07,4.42-4.93,6.7-7.35c2.13-2.27,4.53-3.98,7.93-4.13
	c2.39-0.1,4.36-1.66,6.23-3.14c3.77-3,12.53-5.88,17.62-5.68c1.91-0.11,4.09,0.33,6.09,1.58c2.41,1.51,5.5,0.92,7.92,2.69
	c2.77,2.03,4.21,5.18,6.8,7.34C436.31,137.42,435.54,138.55,435.16,139.44z"/>
<path class="st0" d="M649.22,136.57c-2.58-12.47-6.42-24.39-14.75-34.41c-3.1-3.73-4.95-8.51-9.43-11.07
	c-2.52-1.44-5.23-2.66-7.45-4.48c-3.53-2.89-7.37-4.1-11.85-3.78c-2.44,0.17-4.99,0.45-7.3-0.41c-7.59-2.83-15.47-1.45-23.22-1.85
	c-1.13-0.06-2.42,0.25-3.42,0.79c-2.67,1.45-5.57,2.12-8.44,2.93c-2.36,0.66-4.67,1.47-7.02,2.17c-5.26,1.57-9.35,5.15-13.82,8.06
	c-1.03,0.67-1.64,0.91-2.7-0.17c-4.57-4.62-9.69-5.75-14.84-3.51c-5.2,2.26-7.89,7.36-8.25,13.61c-0.37,6.36,0.4,12.67,0.21,19.03
	c-0.18,5.85,0.44,11.81,1.45,17.6c0.81,4.64,1.29,9.36,1.52,13.95c0.49,9.94,2.24,19.83,1.59,29.81
	c-0.7,10.68,2.62,20.98,2.65,31.58c0.01,1.72,0.13,3.45,0.38,5.16c1,6.94,6.44,12.06,12.92,12.24c9.51,0.27,16.04-8.67,13.26-18.25
	c-1.07-3.69-1.8-7.58-1.61-11.25c0.34-6.78-0.31-13.38-1.34-20.02c-0.4-2.56-0.75-5.12-0.66-7.8c0.16-5.14,0.63-10.28-0.05-15.49
	c-0.47-3.56-1.61-7.11-1.19-10.77c0.28-2.48-0.31-4.85-0.51-7.27c-0.33-4.12-1.2-8.27,0.95-12.4c2.31-4.45,5.84-7.94,9.07-11.44
	c8.65-9.37,19.83-12.9,32.53-11.55c1.89,0.2,3.8,0.2,5.11,0.26c10.23-1.6,18.89,4.4,22.06,11.67c4.45,10.21,8.33,20.66,8.3,32.13
	c-0.01,4.72-1.54,9.33-0.75,14.08c0.44,2.61,0.2,5.23-0.04,7.87c-0.29,3.17-2.04,6.08-1.64,9.35c1.2,9.8-2.15,19.21-2.47,28.89
	c-0.12,3.69-2.47,6.98-2.43,10.83c0.06,5.83,3.32,10.95,8.6,13.06c5.23,2.08,10.97,0.76,14.99-3.43c3.18-3.32,3.93-7.48,4.01-11.83
	c0.06-3.21,0.47-6.31,1.58-9.34c1.2-3.28,1.66-6.7,1.21-10.19c-0.21-1.64-0.01-3.24,0.03-4.87c0.15-6.06,1.96-11.99,1.14-18.15
	c-0.38-2.84-0.2-5.83,0.75-8.63c2.58-7.63,1.29-15.47,1.07-23.2C649.29,142.9,649.87,139.71,649.22,136.57z"/>
<path class="st0" d="M804.42,133.41c0.15-7.68-3.79-13.64-7.21-19.87c-2.41-4.39-6.83-7.24-9.12-11.79
	c-2.59-5.17-7.04-8.92-12.16-10.82c-5.8-2.15-11.33-4.9-17.55-6.33c-13.72-3.14-26.21-0.47-38.5,5.24
	c-0.41,0.19-0.83,0.41-1.16,0.71c-4.23,3.92-10.07,5.76-13.63,10.57c-0.6,0.81-1.27,1.74-2.7,2.18c-0.08-1.35-0.32-2.6-0.19-3.8
	c0.72-6.72,0.67-13.38-1.1-19.95c-0.14-0.51-0.12-1.08-0.06-1.61c0.7-5.96,0.08-11.95,0.34-17.92c0.21-4.8-1.26-9.51-1.03-14.35
	c0.19-4.07,0.27-8.15,0.23-12.22c-0.07-6.45-1.07-12.83-1.68-19.23c-0.29-3.01-1.24-5.87-2.8-8.48c-2.83-4.74-8.74-6.89-13.96-5.13
	c-6.57,2.21-10.87,10.57-9.23,18.07c0.7,3.21,1.11,6.43,1,9.71c-0.19,5.61-0.77,11.21-0.45,16.83c0.41,7.15,1.44,14.29,1.31,21.42
	c-0.14,7.33,1.5,14.56,0.8,21.88c-0.47,4.91,0.38,9.76,0.67,14.63c0.34,5.86-0.7,11.82,1.17,17.58c1.03,3.16,0.94,6.38,0.62,9.67
	c-0.38,3.87-0.59,7.78-0.53,11.67c0.08,4.7,1.13,9.35,0.78,14.08c-0.13,1.74,0.51,3.39,0.82,5.08c0.69,3.72,1.39,7.65,0.59,11.25
	c-2.01,9.12-1.42,18.26-0.3,27.25c0.71,5.75,1,11.35,0.32,17c-0.66,5.52,0.76,10.46,3.46,15.11c3.18,5.47,9.98,7.58,15.65,4.79
	c5.39-2.65,8.63-7.04,8.62-13.15c0-3.95-0.23-8.06-1.32-11.83c-1.93-6.71-0.91-13.48-1.17-20.2c-0.17-4.47,0.67-9.02,0.42-13.54
	c-0.21-3.69-1.18-7.31-0.19-11.05c0.31-1.16-0.04-2.52-0.19-3.78c-0.31-2.76,0-5.52,1.3-7.89c4.19-7.66,7.46-15.66,9.72-24.08
	c0.25-0.94,0.73-1.91,1.37-2.63c3.74-4.26,6.33-9.6,11.38-12.63c3.22-1.93,6.22-4.34,10.02-5.17c6.23-1.37,12.22-1.09,18.46,0.82
	c5.81,1.78,9.43,5.97,13.18,9.93c1.92,2.03,2.9,5.18,4.87,7.45c1.78,2.06,2.83,4.45,3.27,7.06c0.6,3.49,1.17,6.97,2.59,10.26
	c0.23,0.53,0.09,1.24,0.04,1.86c-0.34,4.97-0.61,9.94,0.2,14.89c0.21,1.28,0.21,2.51-0.09,3.77c-1.55,6.45-1.65,13.08-2.17,19.63
	c-0.31,3.88-0.31,7.76-1.23,11.57c-0.19,0.78-0.24,1.63-0.2,2.43c0.36,6.99-0.05,13.88-1.78,20.7c-0.57,2.26-0.71,4.68-0.72,7.02
	c-0.02,7.25,5.34,12.99,12.37,13.43c7.22,0.45,13.54-4.55,14.18-11.81c0.4-4.58,2.45-9,1.33-13.73c-0.11-0.47,0.15-1.07,0.34-1.57
	c0.82-2.17,0.79-4.42,0.9-6.7c0.28-5.51,0.85-11.01,1.27-16.51c0.42-5.48,0.91-10.95,1.16-16.44c0.2-4.41-0.2-8.8,0.4-13.27
	c0.64-4.78,1.41-9.87-0.33-14.53C805.18,142.54,804.33,137.97,804.42,133.41z"/>
<path class="st0" d="M868,102.94c1.38-0.87,2.72-1.83,4.13-2.65c4.22-2.45,6.51-6.18,7.41-10.89c0.48-2.51,0.65-5.04,0.49-8.06
	c1.24-7.64-2.63-12.88-9.5-16.5c-2.38-1.25-4.96-1.76-7.49-2.42c-5.43-1.43-10.06,0.06-13.78,4.22c-2.88,3.21-5.03,6.88-6.55,10.92
	c-0.95,2.52-1.38,5.12-0.75,7.75c0.49,2.04,0.75,4.09,1.06,6.15C844.9,104.18,857.12,109.78,868,102.94z"/>
<path class="st0" d="M882.21,194.03c-3.33-5.81-7.68-10.13-15-9.92c-0.72,0.02-1.48,0.04-2.15,0.27
	c-5.75,1.99-11.38,4.08-15.52,8.98c-5.27,6.24-5.71,13.36-1,19.92c1,1.39,1.79,2.93,2.68,4.41c2.65,4.4,6.61,6.54,10.5,6.78
	c3.88,0.09,6.26-0.83,8.7-1.96c5.39-2.49,9.19-6.33,12.14-11.51C885.93,205.07,885.4,199.6,882.21,194.03z"/>
</svg>
