<?xml version="1.0" encoding="utf-8"?>
<!-- Generator: Adobe Illustrator 24.3.0, SVG Export Plug-In . SVG Version: 6.00 Build 0)  -->
<svg version="1.1" id="레이어_1" xmlns="http://www.w3.org/2000/svg" xmlns:xlink="http://www.w3.org/1999/xlink" x="0px"
	y="0px" viewBox="0 0 224.8 241.5" style="enable-background:new 0 0 224.8 241.5;" xml:space="preserve">
<style type="text/css">
	.st0{fill:#fc0;}
</style>
<path class="st0" d="M137.4,204.6c-3.9-0.5-7.9-0.6-11.6,0.8c-3.7,1.4-7.5,2.2-11.3,2.9c-3.6,0.7-7.4,1.6-10.9,1.3
	c-4.4-0.4-8.7,0.1-13-0.2c-4.5-0.3-9.1-0.4-13.3-2.2c-4.7-2.1-9.4-4.2-14.1-6.5c-4.2-2.1-8.8-3.6-11.6-7.8c-0.4-0.7-1.2-1.1-1.8-1.6
	c-5.2-4.6-10.1-9.4-13.2-15.9c-4.9-10.4-9.3-20.9-8.2-32.2c0.1-3-0.2-5.4,0-7.9c0.4-5.1,2.6-9.8,3.6-14.8c0.6-3.2,1.6-6.6,3.1-9.4
	c1.7-3.1,2.9-6.4,4.7-9.5c2.2-3.7,3.2-7.9,6.3-11.1c1.2-1.2,1.8-2.9,2.4-4.6c0.3-0.9,0.7-1.8,1.3-2.6c2.8-3.3,5.2-6.9,9.4-8.7
	c1.2-0.5,2-1.8,3-2.8c3.9-3.8,8.2-7.4,13-9.8c9.4-4.8,19.2-8.9,29.9-10.4c2.4-0.3,4.8-0.8,7.3-0.4c2.4,0.4,4.7,0.2,7.1,0.2
	c4.2,0.1,8.3-0.8,12.5-0.9c5.6-0.1,10.4-4.7,11.5-10.3c1.1-5.8-1.6-11.8-6.8-14.1c-4.1-1.8-8.5-3.2-12.9-3.3
	c-8.6-0.2-17.2-0.4-25.7,1.1c-4.1,0.7-7.8,2.5-11.8,3.3c-6.8,1.4-13.3,3.4-19.2,7.4c-3.1,2.1-6,4.7-9.9,5.5
	c-0.8,0.2-1.7,0.8-2.3,1.4c-6,5.2-12.9,9.5-17.8,15.8c-2.3,3-6.2,4.6-7.9,8.1c-2.5,5.1-6.9,8.9-9.6,14c-2.3,4.6-4.9,9.1-7.2,13.6
	c-1.6,3-1.4,6.7-2.9,9.5c-2.3,4.4-3.5,9.3-5.4,13.8C-0.4,126.4,0,137,0,147.6c0,0.9,0.2,1.8,0.5,2.7c0.7,2.1,0.8,4.2,0.8,6.4
	c0,5.5,0.9,10.9,3.4,15.8c1.3,2.6,2.7,5.1,3.8,7.8c1.9,4.5,3.3,9.2,6.9,12.9c0.5,0.6,0.8,1.4,1.1,2.2c2.5,5.5,5.7,10.3,11,13.5
	c0.6,0.4,1.2,0.9,1.6,1.4c4.8,5.9,11.3,9.8,17.5,13.6c7.1,4.3,14.7,8.4,23.2,9.8c3.9,0.7,7.1,3.6,11.1,3.6
	c7.4-0.2,14.8,0.3,22.3-0.5c7.2-0.7,14.2-3,21.5-3.2c6.1-0.2,11.6-1.7,16.8-4.8c4.9-2.9,7.8-8.2,6.8-13.7
	C147.2,209.7,142.9,205.2,137.4,204.6z"/>
<path class="st0" d="M208,102.9c1.4-0.9,2.7-1.8,4.1-2.7c4.2-2.4,6.5-6.2,7.4-10.9c0.5-2.5,0.7-5,0.5-8.1c1.2-7.6-2.6-12.9-9.5-16.5
	c-2.4-1.2-5-1.8-7.5-2.4c-5.4-1.4-10.1,0.1-13.8,4.2c-2.9,3.2-5,6.9-6.5,10.9c-1,2.5-1.4,5.1-0.8,7.8c0.5,2,0.8,4.1,1.1,6.2
	C184.9,104.2,197.1,109.8,208,102.9z"/>
<path class="st0" d="M222.2,194c-3.3-5.8-7.7-10.1-15-9.9c-0.7,0-1.5,0-2.2,0.3c-5.8,2-11.4,4.1-15.5,9c-5.3,6.2-5.7,13.4-1,19.9
	c1,1.4,1.8,2.9,2.7,4.4c2.7,4.4,6.6,6.5,10.5,6.8c3.9,0.1,6.3-0.8,8.7-2c5.4-2.5,9.2-6.3,12.1-11.5
	C225.9,205.1,225.4,199.6,222.2,194z"/>
</svg>
