<?xml version="1.0" encoding="UTF-8"?>
<svg xmlns="http://www.w3.org/2000/svg" xmlns:xlink="http://www.w3.org/1999/xlink" width="181pt" height="150pt" viewBox="0 0 181 150" version="1.1">
<g id="surface1">
<path style=" stroke:none;fill-rule:nonzero;fill:rgb(99.607843%,99.607843%,99.607843%);fill-opacity:1;" d="M 180.695312 134.152344 C 181.066406 138.269531 179.453125 141.824219 175.664062 144.382812 C 174.546875 145.132812 173.617188 146.132812 172.496094 146.941406 C 170.945312 148.066406 169.269531 149.125 167.34375 149.3125 C 163.804688 149.6875 160.203125 150.375 156.726562 149.9375 C 153.496094 149.5625 150.390625 149.4375 147.285156 149.75 C 141.636719 150.375 136.046875 149.5625 130.457031 149.25 C 127.355469 149.0625 124.1875 149.1875 121.082031 148.9375 C 118.847656 148.816406 116.609375 149.1875 114.375 148.9375 C 109.90625 148.441406 105.496094 149.375 101.085938 149.375 C 99.90625 149.375 98.664062 149.9375 97.609375 149.75 C 93.945312 149 90.28125 149.8125 86.558594 149.5 C 82.398438 149.125 78.175781 149.0625 73.953125 149.25 C 71.53125 149.375 69.109375 149.25 66.6875 149.125 C 64.015625 149 61.222656 149.125 58.675781 148.816406 C 54.765625 148.378906 50.976562 149.125 47.125 148.816406 C 44.144531 148.566406 41.226562 149.0625 38.183594 148.9375 C 33.464844 148.753906 28.683594 148.316406 23.902344 148.691406 C 21.355469 148.875 18.808594 148.816406 16.265625 148.691406 C 14.773438 148.628906 13.347656 148.316406 12.042969 147.566406 C 9.929688 146.382812 7.757812 145.257812 5.769531 143.886719 C 0.800781 140.453125 -0.9375 132.714844 1.484375 127.164062 C 4.402344 120.550781 11.980469 116.867188 18.625 117.679688 C 22.535156 118.179688 26.511719 118.675781 30.484375 117.617188 C 32.65625 117.054688 34.957031 117.679688 37.191406 117.929688 C 38.742188 118.117188 40.359375 118.179688 41.910156 118.054688 C 44.703125 117.804688 47.4375 117.867188 50.167969 118.488281 C 51.101562 118.675781 52.03125 118.613281 52.964844 118.242188 C 54.640625 117.554688 56.441406 117.429688 58.304688 117.742188 C 60.226562 118.117188 62.089844 117.492188 64.015625 117.554688 C 66.3125 117.617188 68.609375 117.429688 70.910156 117.554688 C 74.136719 117.742188 77.429688 117.367188 80.65625 118.242188 C 80.96875 118.304688 81.277344 118.363281 81.652344 118.304688 C 85.253906 117.304688 88.917969 117.554688 92.519531 118.117188 C 93.015625 118.179688 93.511719 118.179688 94.007812 117.992188 C 95.5625 117.429688 97.238281 117.242188 98.851562 117.367188 C 103.507812 117.617188 108.167969 117.179688 112.824219 117.054688 C 119.46875 116.867188 126.113281 117.492188 132.695312 116.554688 C 133.875 116.367188 135.054688 116.429688 136.234375 116.742188 C 138.964844 117.429688 141.699219 116.804688 144.429688 116.992188 C 149.769531 117.304688 155.171875 116.492188 160.511719 117.742188 C 160.949219 117.867188 161.445312 117.804688 161.878906 117.742188 C 167.15625 116.804688 171.628906 119.238281 175.789062 121.796875 C 179.390625 124.042969 180.382812 128.160156 180.695312 132.34375 C 180.757812 132.714844 180.695312 133.214844 180.695312 134.152344 Z M 180.695312 134.152344 "/>
<path style=" stroke:none;fill-rule:nonzero;fill:rgb(99.607843%,99.607843%,99.607843%);fill-opacity:1;" d="M 180.695312 75.9375 C 181.066406 80.117188 179.453125 83.609375 175.664062 86.230469 C 174.113281 87.292969 172.808594 88.601562 171.195312 89.601562 C 169.394531 90.660156 167.53125 91.222656 165.417969 91.347656 C 163.121094 91.472656 160.824219 91.660156 158.527344 91.847656 C 156.789062 91.972656 155.171875 91.847656 153.558594 91.222656 C 153.1875 91.097656 152.75 90.910156 152.441406 90.972656 C 150.082031 91.472656 147.722656 91.160156 145.421875 91.535156 C 141.820312 92.097656 138.34375 91.285156 134.804688 91.222656 C 129.277344 91.160156 123.753906 90.660156 118.226562 90.785156 C 114.933594 90.847656 111.582031 91.285156 108.289062 90.285156 C 108.167969 90.226562 108.042969 90.164062 107.980469 90.226562 C 105.371094 91.597656 102.453125 90.972656 99.722656 91.285156 C 99.597656 91.285156 99.472656 91.347656 99.410156 91.347656 C 95.4375 91.285156 91.460938 91.222656 87.550781 91.160156 C 85.128906 91.097656 82.707031 91.097656 80.285156 90.972656 C 74.261719 90.660156 68.238281 91.222656 62.277344 90.347656 C 60.476562 90.101562 58.738281 91.035156 56.9375 90.472656 C 55.324219 89.976562 53.707031 89.851562 51.96875 90.347656 C 50.789062 90.660156 49.484375 90.597656 48.242188 90.472656 C 44.890625 90.101562 41.539062 90.785156 38.121094 90.535156 C 33.464844 90.226562 28.746094 89.914062 24.027344 90.285156 C 21.417969 90.472656 18.871094 90.410156 16.265625 90.347656 C 14.773438 90.285156 13.40625 89.914062 12.042969 89.226562 C 9.867188 88.164062 7.757812 86.917969 5.769531 85.546875 C 0.800781 82.050781 -0.875 74.375 1.546875 68.824219 C 4.464844 62.269531 12.042969 58.527344 18.75 59.339844 C 22.660156 59.835938 26.632812 60.335938 30.609375 59.277344 C 32.71875 58.714844 35.015625 59.339844 37.191406 59.527344 C 38.929688 59.714844 40.667969 59.773438 42.40625 59.589844 C 45.140625 59.339844 47.808594 59.527344 50.480469 60.085938 C 51.347656 60.273438 52.09375 60.148438 52.964844 59.835938 C 54.703125 59.152344 56.566406 58.964844 58.425781 59.339844 C 60.351562 59.714844 62.214844 59.214844 64.140625 59.152344 C 68.488281 59.027344 72.832031 58.964844 77.117188 59.464844 C 80.535156 59.835938 83.761719 59.214844 87.117188 59.339844 C 89.039062 59.402344 90.964844 59.339844 92.828125 59.773438 C 93.699219 59.960938 94.441406 59.402344 95.3125 59.339844 C 96.554688 59.214844 97.796875 58.964844 99.039062 59.027344 C 103.757812 59.277344 108.476562 58.839844 113.195312 58.714844 C 119.839844 58.527344 126.484375 59.152344 133.066406 58.214844 C 133.6875 58.152344 134.371094 58.027344 134.929688 58.214844 C 137.847656 59.214844 140.890625 58.714844 143.808594 58.652344 C 146.851562 58.527344 149.832031 59.089844 152.875 58.777344 C 155.296875 58.464844 157.84375 58.589844 160.265625 59.339844 C 160.949219 59.527344 161.570312 59.589844 162.25 59.464844 C 163.742188 59.152344 165.292969 59.152344 166.785156 59.589844 C 169.765625 60.398438 172.746094 61.398438 175.355469 63.082031 C 179.390625 65.703125 180.632812 69.882812 180.878906 74.5 C 180.695312 74.8125 180.695312 75.1875 180.695312 75.9375 Z M 180.695312 75.9375 "/>
<path style=" stroke:none;fill-rule:nonzero;fill:rgb(99.607843%,99.607843%,99.607843%);fill-opacity:1;" d="M 159.023438 33.632812 C 157.285156 33.820312 155.546875 33.695312 153.867188 33.007812 C 153.558594 32.882812 153.1875 32.695312 152.875 32.757812 C 150.019531 33.570312 147.039062 33.070312 144.183594 33.507812 C 143.125 33.695312 142.070312 33.695312 140.953125 33.507812 C 137.660156 33.007812 134.308594 33.257812 131.015625 32.882812 C 127.789062 32.507812 124.558594 32.695312 121.332031 32.570312 C 119.09375 32.445312 116.859375 32.757812 114.625 32.570312 C 110.152344 32.132812 105.746094 32.945312 101.335938 33.007812 C 99.90625 33.007812 98.480469 33.445312 96.988281 33.445312 C 91.089844 33.257812 85.128906 33.257812 79.230469 32.945312 C 73.640625 32.632812 67.992188 33.195312 62.402344 32.320312 C 60.664062 32.070312 58.988281 33.007812 57.1875 32.507812 C 55.570312 32.007812 53.957031 31.882812 52.21875 32.382812 C 51.039062 32.695312 49.734375 32.632812 48.492188 32.507812 C 45.140625 32.070312 41.785156 32.820312 38.371094 32.570312 C 33.714844 32.257812 28.992188 31.945312 24.273438 32.257812 C 21.667969 32.445312 19.121094 32.382812 16.511719 32.320312 C 15.023438 32.257812 13.59375 31.882812 12.289062 31.199219 C 10.242188 29.949219 8.066406 28.828125 6.082031 27.453125 C 1.113281 23.960938 -0.5625 16.222656 1.859375 10.730469 C 4.777344 4.117188 12.351562 0.4375 19.058594 1.246094 C 22.972656 1.746094 26.945312 2.246094 30.917969 1.183594 C 33.03125 0.625 35.328125 1.246094 37.5 1.433594 C 39.179688 1.621094 40.855469 1.683594 42.53125 1.558594 C 45.324219 1.308594 48.058594 1.496094 50.789062 1.996094 C 51.660156 2.183594 52.402344 2.058594 53.273438 1.746094 C 55.011719 1.0625 56.875 0.875 58.738281 1.246094 C 60.664062 1.621094 62.527344 1.125 64.449219 1.0625 C 68.796875 0.9375 73.144531 0.875 77.429688 1.371094 C 80.84375 1.746094 84.074219 1.125 87.425781 1.246094 C 89.351562 1.308594 91.277344 1.246094 93.140625 1.683594 C 93.574219 1.746094 94.070312 1.683594 94.441406 1.558594 C 95.996094 1 97.671875 0.875 99.285156 0.9375 C 103.945312 1.183594 108.664062 0.8125 113.257812 0.625 C 119.714844 0.375 126.175781 1.0625 132.632812 0.125 C 134.246094 -0.125 135.859375 0.0625 137.476562 0.4375 C 138.035156 0.5625 138.59375 0.625 139.152344 0.625 C 142.816406 0.4375 146.542969 0.375 150.207031 0.6875 C 152.441406 0.875 154.675781 0.3125 156.910156 0.6875 C 160.203125 1.308594 163.554688 0.8125 166.785156 1.371094 C 169.890625 1.933594 172.808594 3.308594 175.539062 4.804688 C 178.769531 6.613281 180.011719 9.984375 180.757812 13.414062 C 181.316406 15.785156 181.191406 18.28125 180.878906 20.714844 C 180.632812 23.148438 179.515625 25.144531 177.714844 26.707031 C 176.035156 28.140625 174.296875 29.511719 172.558594 30.824219 C 170.511719 32.320312 168.214844 33.132812 165.667969 33.195312 C 163.429688 33.195312 161.257812 33.445312 159.023438 33.632812 Z M 159.023438 33.632812 "/>
</g>
</svg>
